pedal_clip_forces.mot
version=1
nRows=104
nColumns=4
inDegrees=yes
endheader
time	PedalClip_calcn_r_Fx	PedalClip_calcn_r_Fy	PedalClip_calcn_r_Fz
0	23.9839576099093	-10.9033708680764	0
0.001	24.2276976888349	-10.7329296653697	0
0.00278178	24.4692552696632	-10.5719898134689	0
0.00318095	24.7086229249116	-10.4206187919236	0
0.00431456	24.9457875881087	-10.2788913746159	0
0.00562054	25.1807395831855	-10.1468871767971	0
0.0063107	25.413474956766	-10.0246889667911	0
0.00817823	25.643989914795	-9.91237225289168	0
0.00906845	25.8722857202497	-9.81001010904762	0
0.01025004	26.0983685505291	-9.71767872200522	0
0.01138269	26.3222438180063	-9.63544501624405	0
0.01226596	26.5439191799768	-9.56336866247393	0
0.01391304	26.7634019399664	-9.50149101572326	0
0.01431325	26.9806999984577	-9.44983533917824	0
0.01551599	27.1958174878387	-9.40839955911684	0
0.01661496	27.4087575123786	-9.3771526392532	0
0.01740125	27.6195235257346	-9.35603058508846	0
0.0190675	27.8281118908596	-9.34491335881537	0
0.0195089	28.0345135342969	-9.34361409083315	0
0.02171592	28.2387061772319	-9.35185494695293	0
0.02193662	28.4406564821997	-9.36923979553792	0
0.02254061	28.6403235354883	-9.39524194559048	0
0.02387904	28.8376475624654	-9.42920664482327	0
0.02464397	29.032502807363	-9.4706292912412	0
0.02756216	29.2245844755079	-9.52061988327518	0
0.02794268	29.4146676149528	-9.58955692727286	0
0.02854842	29.6022037398684	-9.67355133403687	0
0.03021448	29.7872915319116	-9.77298868631365	0
0.03105968	29.9699939230905	-9.88818673792581	0
0.03190489	30.1502056528174	-10.0192427135302	0
0.03350449	30.3278260729576	-10.165929030057	0
0.03435709	30.5027939416422	-10.3276707149475	0
0.0352097	30.6747729471001	-10.5032148342985	0
0.03679258	30.8434835149043	-10.6908195142737	0
0.0376374	31.0089152417779	-10.8889336762199	0
0.03848221	31.1709389458942	-11.0965454847515	0
0.04007034	31.3295196929488	-11.3133311666077	0
0.04087049	31.4846224151567	-11.5392090391383	0
0.04167065	31.6363314893779	-11.7741542841999	0
0.04251318	31.7845592944124	-12.0183742305956	0
0.04382001	31.929329756675	-12.2720781328544	0
0.04477976	32.070796829375	-12.5364836317285	0
0.04590816	32.20936754742	-12.8131125206258	0
0.04703656	32.3458332358996	-13.1029193895952	0
0.048051	32.4808706323823	-13.40625996573	0
0.04906545	32.6148638399356	-13.7222269120916	0
0.05022161	32.7478011318346	-14.0499929091101	0
0.05090492	32.8794779833184	-14.3885485731705	0
0.05237298	33.0095100806601	-14.737440998576	0
0.0531936	33.1377214696154	-15.0966488886993	0
0.05401422	33.2643619272287	-15.4661377652442	0
0.05544772	33.3898383606452	-15.8459618321276	0
0.05602821	33.514236569171	-16.2354946188674	0
0.05887177	33.6373793136688	-16.6344816130398	0
0.05915612	33.7593495708616	-17.0429597372806	0
0.0597504	33.8801908685462	-17.4602486956069	0
0.0610016	33.999692365246	-17.8859223658287	0
0.06198277	34.1176668925835	-18.3198271824036	0
0.062811	34.2340588760797	-18.7618233157978	0
0.0641249	34.3489682993991	-19.2115008778811	-0
0.06543881	34.4625564329836	-19.6682407600963	0
0.06627708	34.5747366252479	-20.1313747907334	-0
0.06711535	34.6853277913816	-20.5996332227795	-0
0.06850651	34.7945369405072	-21.0710718477349	-0
0.06887292	34.9027505713647	-21.5446746082347	-0
0.06967463	35.0102220966452	-22.0197976935495	-0
0.07094424	35.1171044408001	-22.4966810543096	-0
0.07221385	35.2234979366909	-22.9755758330921	-0
0.07305634	35.3294938992109	-23.4572216528861	-0
0.07389883	35.4350989139781	-23.9416646064621	-0
0.07527998	35.5403356574257	-24.4293439206921	-0
0.07566391	35.6452314475726	-24.9209884345496	-0
0.07642942	35.7498626415582	-25.4180646130548	-0
0.07784963	35.8541727766232	-25.9213133369338	-0
0.07926983	35.9579454623139	-26.4317826247723	-0
0.0800609	36.0611766626539	-26.9509155622885	-0
0.08085196	36.1639720296378	-27.4801763180219	-0
0.08233199	36.2664286785214	-28.0202654637202	-0
0.08315763	36.3685156814118	-28.5717107341165	-0
0.08398327	36.4702489091365	-29.1340738305671	-0
0.08537215	36.5717207849969	-29.7069708247194	-0
0.0858617	36.6730506573295	-30.2893506439534	-0
0.08790143	36.774219139792	-30.8806037820795	-0
0.08866896	36.8752537184785	-31.4802149890008	-0
0.08943648	36.9762210055713	-32.0877969320129	-0
0.0903857	37.0770365076853	-32.7022842998881	-0
0.09142722	37.177306095769	-33.3228303944419	-0
0.09246874	37.2766356211195	-33.9484527232624	-0
0.09343413	37.3749528314423	-34.5782815266772	-0
0.09439951	37.4726755509186	-35.2118283895382	-0
0.09547103	37.5702929072546	-35.8481029017816	-0
0.09654255	37.6679502518593	-36.4860219990885	-0
0.0974934	37.7658067418167	-37.1239259710114	-0
0.09844424	37.8638413776879	-37.7599561731415	-0
0.09955459	37.9621015985173	-38.3931838216843	-0
0.10066493	38.0606829540531	-39.0234466547464	-0
0.10164094	38.1598482077841	-39.6517463513703	-0
0.10261695	38.2597765902839	-40.2788847924798	-0
0.10379495	38.3604626085994	-40.9050198165852	-0
0.10497294	38.4617533320306	-41.5299405687509	-0
0.10592874	38.5634060113464	-42.1543782067117	-0
0.10688454	38.6652536857619	-42.7799577619628	-0
0.10810145	38.7671867647797	-43.4082575439312	-0
0.10931836	38.8687287386129	-44.0408912253752	-0
